<?xml version="1.0" encoding="UTF-8" standalone="no"?>
<!DOCTYPE svg PUBLIC "-//W3C//DTD SVG 1.1//EN"
 "http://www.w3.org/Graphics/SVG/1.1/DTD/svg11.dtd">
<!-- Generated by graphviz version 2.50.0 (0)
 -->
<!-- Pages: 1 -->
<svg width="799pt" height="245pt"
 viewBox="0.00 0.00 798.93 245.47" xmlns="http://www.w3.org/2000/svg" xmlns:xlink="http://www.w3.org/1999/xlink">
<g id="graph0" class="graph" transform="scale(1 1) rotate(0) translate(4 241.47)">
<polygon fill="white" stroke="transparent" points="-4,4 -4,-241.47 794.93,-241.47 794.93,4 -4,4"/>
<g id="clust1" class="cluster">
<title>cluster__legend</title>
<polygon fill="#ffffff" stroke="black" points="8,-93.47 8,-229.47 95.03,-229.47 95.03,-93.47 8,-93.47"/>
<text text-anchor="middle" x="51.52" y="-212.87" font-family="Helvetica,sans-Serif" font-size="14.00">Legend</text>
</g>
<!-- spend_zero_mean_unit_variance -->
<g id="node1" class="node">
<title>spend_zero_mean_unit_variance</title>
<path fill="#ffc857" stroke="black" d="M779.04,-113.47C779.04,-113.47 560.62,-113.47 560.62,-113.47 554.62,-113.47 548.62,-107.47 548.62,-101.47 548.62,-101.47 548.62,-61.47 548.62,-61.47 548.62,-55.47 554.62,-49.47 560.62,-49.47 560.62,-49.47 779.04,-49.47 779.04,-49.47 785.04,-49.47 791.04,-55.47 791.04,-61.47 791.04,-61.47 791.04,-101.47 791.04,-101.47 791.04,-107.47 785.04,-113.47 779.04,-113.47"/>
<text text-anchor="start" x="559.73" y="-90.87" font-family="Helvetica,sans-Serif" font-weight="bold" font-size="14.00">spend_zero_mean_unit_variance</text>
<text text-anchor="start" x="649.99" y="-62.87" font-family="Helvetica,sans-Serif" font-style="italic" font-size="14.00">Series</text>
</g>
<!-- spend_std_dev -->
<g id="node2" class="node">
<title>spend_std_dev</title>
<path fill="#b4d8e4" stroke="black" d="M334.53,-165.47C334.53,-165.47 234.68,-165.47 234.68,-165.47 228.68,-165.47 222.68,-159.47 222.68,-153.47 222.68,-153.47 222.68,-113.47 222.68,-113.47 222.68,-107.47 228.68,-101.47 234.68,-101.47 234.68,-101.47 334.53,-101.47 334.53,-101.47 340.53,-101.47 346.53,-107.47 346.53,-113.47 346.53,-113.47 346.53,-153.47 346.53,-153.47 346.53,-159.47 340.53,-165.47 334.53,-165.47"/>
<text text-anchor="start" x="233.64" y="-142.87" font-family="Helvetica,sans-Serif" font-weight="bold" font-size="14.00">spend_std_dev</text>
<text text-anchor="start" x="271.38" y="-114.87" font-family="Helvetica,sans-Serif" font-style="italic" font-size="14.00">float</text>
</g>
<!-- spend_std_dev&#45;&gt;spend_zero_mean_unit_variance -->
<g id="edge2" class="edge">
<title>spend_std_dev&#45;&gt;spend_zero_mean_unit_variance</title>
<path fill="none" stroke="black" d="M346.75,-125.18C398.1,-118.21 473.26,-108.01 538.06,-99.22"/>
<polygon fill="black" stroke="black" points="538.93,-102.63 548.36,-97.82 537.98,-95.7 538.93,-102.63"/>
</g>
<!-- spend_mean -->
<g id="node3" class="node">
<title>spend_mean</title>
<path fill="#b4d8e4" stroke="black" d="M326.19,-83.47C326.19,-83.47 243.02,-83.47 243.02,-83.47 237.02,-83.47 231.02,-77.47 231.02,-71.47 231.02,-71.47 231.02,-31.47 231.02,-31.47 231.02,-25.47 237.02,-19.47 243.02,-19.47 243.02,-19.47 326.19,-19.47 326.19,-19.47 332.19,-19.47 338.19,-25.47 338.19,-31.47 338.19,-31.47 338.19,-71.47 338.19,-71.47 338.19,-77.47 332.19,-83.47 326.19,-83.47"/>
<text text-anchor="start" x="241.81" y="-60.87" font-family="Helvetica,sans-Serif" font-weight="bold" font-size="14.00">spend_mean</text>
<text text-anchor="start" x="271.38" y="-32.87" font-family="Helvetica,sans-Serif" font-style="italic" font-size="14.00">float</text>
</g>
<!-- spend_zero_mean -->
<g id="node6" class="node">
<title>spend_zero_mean</title>
<path fill="#b4d8e4" stroke="black" d="M507.81,-83.47C507.81,-83.47 387.49,-83.47 387.49,-83.47 381.49,-83.47 375.49,-77.47 375.49,-71.47 375.49,-71.47 375.49,-31.47 375.49,-31.47 375.49,-25.47 381.49,-19.47 387.49,-19.47 387.49,-19.47 507.81,-19.47 507.81,-19.47 513.81,-19.47 519.81,-25.47 519.81,-31.47 519.81,-31.47 519.81,-71.47 519.81,-71.47 519.81,-77.47 513.81,-83.47 507.81,-83.47"/>
<text text-anchor="start" x="386.57" y="-60.87" font-family="Helvetica,sans-Serif" font-weight="bold" font-size="14.00">spend_zero_mean</text>
<text text-anchor="start" x="427.81" y="-32.87" font-family="Helvetica,sans-Serif" font-style="italic" font-size="14.00">Series</text>
</g>
<!-- spend_mean&#45;&gt;spend_zero_mean -->
<g id="edge7" class="edge">
<title>spend_mean&#45;&gt;spend_zero_mean</title>
<path fill="none" stroke="black" d="M338.34,-51.47C346.93,-51.47 356.01,-51.47 365.11,-51.47"/>
<polygon fill="black" stroke="black" points="365.36,-54.97 375.36,-51.47 365.36,-47.97 365.36,-54.97"/>
</g>
<!-- spend_data -->
<g id="node4" class="node">
<title>spend_data</title>
<path fill="#b4d8e4" stroke="black" d="M89.32,-83.47C89.32,-83.47 13.72,-83.47 13.72,-83.47 7.72,-83.47 1.72,-77.47 1.72,-71.47 1.72,-71.47 1.72,-31.47 1.72,-31.47 1.72,-25.47 7.72,-19.47 13.72,-19.47 13.72,-19.47 89.32,-19.47 89.32,-19.47 95.32,-19.47 101.32,-25.47 101.32,-31.47 101.32,-31.47 101.32,-71.47 101.32,-71.47 101.32,-77.47 95.32,-83.47 89.32,-83.47"/>
<text text-anchor="start" x="12.62" y="-60.87" font-family="Helvetica,sans-Serif" font-weight="bold" font-size="14.00">spend_data</text>
<text text-anchor="start" x="16.51" y="-32.87" font-family="Helvetica,sans-Serif" font-style="italic" font-size="14.00">DataFrame</text>
</g>
<!-- spend -->
<g id="node5" class="node">
<title>spend</title>
<path fill="#b4d8e4" stroke="black" d="M181.76,-83.47C181.76,-83.47 142.3,-83.47 142.3,-83.47 136.3,-83.47 130.3,-77.47 130.3,-71.47 130.3,-71.47 130.3,-31.47 130.3,-31.47 130.3,-25.47 136.3,-19.47 142.3,-19.47 142.3,-19.47 181.76,-19.47 181.76,-19.47 187.76,-19.47 193.76,-25.47 193.76,-31.47 193.76,-31.47 193.76,-71.47 193.76,-71.47 193.76,-77.47 187.76,-83.47 181.76,-83.47"/>
<text text-anchor="start" x="141.42" y="-60.87" font-family="Helvetica,sans-Serif" font-weight="bold" font-size="14.00">spend</text>
<text text-anchor="start" x="142.19" y="-32.87" font-family="Helvetica,sans-Serif" font-style="italic" font-size="14.00">Series</text>
</g>
<!-- spend_data&#45;&gt;spend -->
<g id="edge5" class="edge">
<title>spend_data&#45;&gt;spend</title>
<path fill="none" stroke="black" d="M101.38,-51.47C107.65,-51.47 114.02,-51.47 120.14,-51.47"/>
<polygon fill="black" stroke="black" points="120.16,-54.97 130.16,-51.47 120.16,-47.97 120.16,-54.97"/>
</g>
<!-- spend&#45;&gt;spend_std_dev -->
<g id="edge3" class="edge">
<title>spend&#45;&gt;spend_std_dev</title>
<path fill="none" stroke="black" d="M193.93,-72.82C203.15,-79.16 213.3,-86.12 222.64,-92.47 224.09,-93.46 225.56,-94.46 227.05,-95.47"/>
<polygon fill="black" stroke="black" points="225.41,-98.58 235.65,-101.29 229.34,-92.79 225.41,-98.58"/>
</g>
<!-- spend&#45;&gt;spend_mean -->
<g id="edge4" class="edge">
<title>spend&#45;&gt;spend_mean</title>
<path fill="none" stroke="black" d="M193.77,-51.47C202.07,-51.47 211.36,-51.47 220.74,-51.47"/>
<polygon fill="black" stroke="black" points="220.91,-54.97 230.91,-51.47 220.91,-47.97 220.91,-54.97"/>
</g>
<!-- spend&#45;&gt;spend_zero_mean -->
<g id="edge6" class="edge">
<title>spend&#45;&gt;spend_zero_mean</title>
<path fill="none" stroke="black" d="M193.96,-25.06C202.69,-19.1 212.57,-13.6 222.64,-10.47 275.24,5.87 292.53,0.17 346.57,-10.47 353.79,-11.9 361.14,-13.84 368.42,-16.12"/>
<polygon fill="black" stroke="black" points="367.69,-19.57 378.28,-19.42 369.9,-12.93 367.69,-19.57"/>
</g>
<!-- spend_zero_mean&#45;&gt;spend_zero_mean_unit_variance -->
<g id="edge1" class="edge">
<title>spend_zero_mean&#45;&gt;spend_zero_mean_unit_variance</title>
<path fill="none" stroke="black" d="M519.83,-61.17C525.93,-62 532.22,-62.86 538.59,-63.73"/>
<polygon fill="black" stroke="black" points="538.3,-67.22 548.68,-65.1 539.24,-60.29 538.3,-67.22"/>
</g>
<!-- function -->
<g id="node7" class="node">
<title>function</title>
<path fill="#b4d8e4" stroke="black" d="M75.05,-196.77C75.05,-196.77 27.98,-196.77 27.98,-196.77 21.98,-196.77 15.98,-190.77 15.98,-184.77 15.98,-184.77 15.98,-170.17 15.98,-170.17 15.98,-164.17 21.98,-158.17 27.98,-158.17 27.98,-158.17 75.05,-158.17 75.05,-158.17 81.05,-158.17 87.05,-164.17 87.05,-170.17 87.05,-170.17 87.05,-184.77 87.05,-184.77 87.05,-190.77 81.05,-196.77 75.05,-196.77"/>
<text text-anchor="middle" x="51.52" y="-173.27" font-family="Helvetica,sans-Serif" font-size="14.00">function</text>
</g>
<!-- output -->
<g id="node8" class="node">
<title>output</title>
<path fill="#ffc857" stroke="black" d="M69.94,-139.77C69.94,-139.77 33.09,-139.77 33.09,-139.77 27.09,-139.77 21.09,-133.77 21.09,-127.77 21.09,-127.77 21.09,-113.17 21.09,-113.17 21.09,-107.17 27.09,-101.17 33.09,-101.17 33.09,-101.17 69.94,-101.17 69.94,-101.17 75.94,-101.17 81.94,-107.17 81.94,-113.17 81.94,-113.17 81.94,-127.77 81.94,-127.77 81.94,-133.77 75.94,-139.77 69.94,-139.77"/>
<text text-anchor="middle" x="51.52" y="-116.27" font-family="Helvetica,sans-Serif" font-size="14.00">output</text>
</g>
</g>
</svg>
