<?xml version="1.0" encoding="UTF-8" standalone="no"?>
<!DOCTYPE svg PUBLIC "-//W3C//DTD SVG 1.1//EN"
 "http://www.w3.org/Graphics/SVG/1.1/DTD/svg11.dtd">
<!-- Generated by graphviz version 2.50.0 (0)
 -->
<!-- Pages: 1 -->
<svg width="751pt" height="560pt"
 viewBox="0.00 0.00 750.83 559.60" xmlns="http://www.w3.org/2000/svg" xmlns:xlink="http://www.w3.org/1999/xlink">
<g id="graph0" class="graph" transform="scale(1 1) rotate(0) translate(4 555.6)">
<polygon fill="white" stroke="transparent" points="-4,4 -4,-555.6 746.83,-555.6 746.83,4 -4,4"/>
<g id="clust1" class="cluster">
<title>cluster__legend</title>
<polygon fill="#ffffff" stroke="black" points="17.98,-350.6 17.98,-543.6 105.02,-543.6 105.02,-350.6 17.98,-350.6"/>
<text text-anchor="middle" x="61.5" y="-527" font-family="Helvetica,sans-Serif" font-size="14.00">Legend</text>
</g>
<!-- spend_std_dev -->
<g id="node1" class="node">
<title>spend_std_dev</title>
<path fill="#b4d8e4" stroke="black" d="M275.16,-256.6C275.16,-256.6 175.31,-256.6 175.31,-256.6 169.31,-256.6 163.31,-250.6 163.31,-244.6 163.31,-244.6 163.31,-204.6 163.31,-204.6 163.31,-198.6 169.31,-192.6 175.31,-192.6 175.31,-192.6 275.16,-192.6 275.16,-192.6 281.16,-192.6 287.16,-198.6 287.16,-204.6 287.16,-204.6 287.16,-244.6 287.16,-244.6 287.16,-250.6 281.16,-256.6 275.16,-256.6"/>
<text text-anchor="start" x="174.27" y="-234" font-family="Helvetica,sans-Serif" font-weight="bold" font-size="14.00">spend_std_dev</text>
<text text-anchor="start" x="212" y="-206" font-family="Helvetica,sans-Serif" font-style="italic" font-size="14.00">float</text>
</g>
<!-- spend_zero_mean_unit_variance -->
<g id="node3" class="node">
<title>spend_zero_mean_unit_variance</title>
<path fill="#ffc857" stroke="black" d="M730.94,-204.6C730.94,-204.6 512.52,-204.6 512.52,-204.6 506.52,-204.6 500.52,-198.6 500.52,-192.6 500.52,-192.6 500.52,-152.6 500.52,-152.6 500.52,-146.6 506.52,-140.6 512.52,-140.6 512.52,-140.6 730.94,-140.6 730.94,-140.6 736.94,-140.6 742.94,-146.6 742.94,-152.6 742.94,-152.6 742.94,-192.6 742.94,-192.6 742.94,-198.6 736.94,-204.6 730.94,-204.6"/>
<text text-anchor="start" x="511.63" y="-182" font-family="Helvetica,sans-Serif" font-weight="bold" font-size="14.00">spend_zero_mean_unit_variance</text>
<text text-anchor="start" x="601.89" y="-154" font-family="Helvetica,sans-Serif" font-style="italic" font-size="14.00">Series</text>
</g>
<!-- spend_std_dev&#45;&gt;spend_zero_mean_unit_variance -->
<g id="edge4" class="edge">
<title>spend_std_dev&#45;&gt;spend_zero_mean_unit_variance</title>
<path fill="none" stroke="black" d="M287.44,-216.54C341.49,-209.41 422.09,-198.79 490.5,-189.77"/>
<polygon fill="black" stroke="black" points="491.04,-193.23 500.5,-188.45 490.13,-186.29 491.04,-193.23"/>
</g>
<!-- spend_mean -->
<g id="node2" class="node">
<title>spend_mean</title>
<path fill="#b4d8e4" stroke="black" d="M266.82,-174.6C266.82,-174.6 183.65,-174.6 183.65,-174.6 177.65,-174.6 171.65,-168.6 171.65,-162.6 171.65,-162.6 171.65,-122.6 171.65,-122.6 171.65,-116.6 177.65,-110.6 183.65,-110.6 183.65,-110.6 266.82,-110.6 266.82,-110.6 272.82,-110.6 278.82,-116.6 278.82,-122.6 278.82,-122.6 278.82,-162.6 278.82,-162.6 278.82,-168.6 272.82,-174.6 266.82,-174.6"/>
<text text-anchor="start" x="182.44" y="-152" font-family="Helvetica,sans-Serif" font-weight="bold" font-size="14.00">spend_mean</text>
<text text-anchor="start" x="212" y="-124" font-family="Helvetica,sans-Serif" font-style="italic" font-size="14.00">float</text>
</g>
<!-- spend_zero_mean -->
<g id="node6" class="node">
<title>spend_zero_mean</title>
<path fill="#ffc857" stroke="black" d="M459.71,-174.6C459.71,-174.6 339.39,-174.6 339.39,-174.6 333.39,-174.6 327.39,-168.6 327.39,-162.6 327.39,-162.6 327.39,-122.6 327.39,-122.6 327.39,-116.6 333.39,-110.6 339.39,-110.6 339.39,-110.6 459.71,-110.6 459.71,-110.6 465.71,-110.6 471.71,-116.6 471.71,-122.6 471.71,-122.6 471.71,-162.6 471.71,-162.6 471.71,-168.6 465.71,-174.6 459.71,-174.6"/>
<text text-anchor="start" x="338.47" y="-152" font-family="Helvetica,sans-Serif" font-weight="bold" font-size="14.00">spend_zero_mean</text>
<text text-anchor="start" x="379.71" y="-124" font-family="Helvetica,sans-Serif" font-style="italic" font-size="14.00">Series</text>
</g>
<!-- spend_mean&#45;&gt;spend_zero_mean -->
<g id="edge7" class="edge">
<title>spend_mean&#45;&gt;spend_zero_mean</title>
<path fill="none" stroke="black" d="M278.87,-142.6C290.9,-142.6 303.96,-142.6 316.88,-142.6"/>
<polygon fill="black" stroke="black" points="317.19,-146.1 327.19,-142.6 317.19,-139.1 317.19,-146.1"/>
</g>
<!-- avg_3wk_spend -->
<g id="node4" class="node">
<title>avg_3wk_spend</title>
<path fill="#ffc857" stroke="black" d="M278.12,-92.6C278.12,-92.6 172.35,-92.6 172.35,-92.6 166.35,-92.6 160.35,-86.6 160.35,-80.6 160.35,-80.6 160.35,-40.6 160.35,-40.6 160.35,-34.6 166.35,-28.6 172.35,-28.6 172.35,-28.6 278.12,-28.6 278.12,-28.6 284.12,-28.6 290.12,-34.6 290.12,-40.6 290.12,-40.6 290.12,-80.6 290.12,-80.6 290.12,-86.6 284.12,-92.6 278.12,-92.6"/>
<text text-anchor="start" x="171.54" y="-70" font-family="Helvetica,sans-Serif" font-weight="bold" font-size="14.00">avg_3wk_spend</text>
<text text-anchor="start" x="205.39" y="-42" font-family="Helvetica,sans-Serif" font-style="italic" font-size="14.00">Series</text>
</g>
<!-- spend_per_signup -->
<g id="node5" class="node">
<title>spend_per_signup</title>
<path fill="#ffc857" stroke="black" d="M286.7,-338.6C286.7,-338.6 163.76,-338.6 163.76,-338.6 157.76,-338.6 151.76,-332.6 151.76,-326.6 151.76,-326.6 151.76,-286.6 151.76,-286.6 151.76,-280.6 157.76,-274.6 163.76,-274.6 163.76,-274.6 286.7,-274.6 286.7,-274.6 292.7,-274.6 298.7,-280.6 298.7,-286.6 298.7,-286.6 298.7,-326.6 298.7,-326.6 298.7,-332.6 292.7,-338.6 286.7,-338.6"/>
<text text-anchor="start" x="163" y="-316" font-family="Helvetica,sans-Serif" font-weight="bold" font-size="14.00">spend_per_signup</text>
<text text-anchor="start" x="205.39" y="-288" font-family="Helvetica,sans-Serif" font-style="italic" font-size="14.00">Series</text>
</g>
<!-- spend_zero_mean&#45;&gt;spend_zero_mean_unit_variance -->
<g id="edge3" class="edge">
<title>spend_zero_mean&#45;&gt;spend_zero_mean_unit_variance</title>
<path fill="none" stroke="black" d="M471.73,-152.3C477.83,-153.13 484.12,-153.99 490.49,-154.86"/>
<polygon fill="black" stroke="black" points="490.2,-158.35 500.58,-156.23 491.15,-151.41 490.2,-158.35"/>
</g>
<!-- _spend_std_dev_inputs -->
<g id="node7" class="node">
<title>_spend_std_dev_inputs</title>
<polygon fill="#ffffff" stroke="black" stroke-dasharray="5,2" points="118,-124.6 5,-124.6 5,-78.6 118,-78.6 118,-124.6"/>
<text text-anchor="start" x="20.43" y="-97" font-family="Helvetica,sans-Serif" font-size="14.00">spend</text>
<text text-anchor="start" x="64.16" y="-97" font-family="Helvetica,sans-Serif" font-size="14.00">Series</text>
</g>
<!-- _spend_std_dev_inputs&#45;&gt;spend_std_dev -->
<g id="edge1" class="edge">
<title>_spend_std_dev_inputs&#45;&gt;spend_std_dev</title>
<path fill="none" stroke="black" d="M84.81,-124.7C102.21,-142.04 127.46,-165.75 152,-183.6 153.57,-184.75 155.18,-185.89 156.82,-187.02"/>
<polygon fill="black" stroke="black" points="154.92,-189.96 165.18,-192.57 158.79,-184.12 154.92,-189.96"/>
</g>
<!-- _spend_std_dev_inputs&#45;&gt;spend_mean -->
<g id="edge2" class="edge">
<title>_spend_std_dev_inputs&#45;&gt;spend_mean</title>
<path fill="none" stroke="black" d="M118.16,-115.71C132.19,-119.27 147.35,-123.11 161.69,-126.75"/>
<polygon fill="black" stroke="black" points="160.92,-130.16 171.47,-129.23 162.64,-123.38 160.92,-130.16"/>
</g>
<!-- _spend_std_dev_inputs&#45;&gt;avg_3wk_spend -->
<g id="edge5" class="edge">
<title>_spend_std_dev_inputs&#45;&gt;avg_3wk_spend</title>
<path fill="none" stroke="black" d="M118.16,-87.49C128.58,-84.85 139.63,-82.05 150.5,-79.3"/>
<polygon fill="black" stroke="black" points="151.58,-82.63 160.41,-76.78 149.86,-75.85 151.58,-82.63"/>
</g>
<!-- _spend_std_dev_inputs&#45;&gt;spend_zero_mean -->
<g id="edge8" class="edge">
<title>_spend_std_dev_inputs&#45;&gt;spend_zero_mean</title>
<path fill="none" stroke="black" d="M79.4,-78.53C95.51,-58.65 121.75,-31.36 152,-19.6 212.67,3.99 239.68,8.35 298.47,-19.6 333.91,-36.46 360.92,-72.69 377.89,-101.49"/>
<polygon fill="black" stroke="black" points="375.06,-103.58 383.05,-110.54 381.14,-100.12 375.06,-103.58"/>
</g>
<!-- _spend_per_signup_inputs -->
<g id="node8" class="node">
<title>_spend_per_signup_inputs</title>
<polygon fill="#ffffff" stroke="black" stroke-dasharray="5,2" points="123,-340.6 0,-340.6 0,-272.6 123,-272.6 123,-340.6"/>
<text text-anchor="start" x="15.37" y="-313" font-family="Helvetica,sans-Serif" font-size="14.00">signups</text>
<text text-anchor="start" x="69.16" y="-313" font-family="Helvetica,sans-Serif" font-size="14.00">Series</text>
<text text-anchor="start" x="20.43" y="-291" font-family="Helvetica,sans-Serif" font-size="14.00">spend</text>
<text text-anchor="start" x="69.16" y="-291" font-family="Helvetica,sans-Serif" font-size="14.00">Series</text>
</g>
<!-- _spend_per_signup_inputs&#45;&gt;spend_per_signup -->
<g id="edge6" class="edge">
<title>_spend_per_signup_inputs&#45;&gt;spend_per_signup</title>
<path fill="none" stroke="black" d="M123.18,-306.6C129.16,-306.6 135.28,-306.6 141.43,-306.6"/>
<polygon fill="black" stroke="black" points="141.76,-310.1 151.76,-306.6 141.76,-303.1 141.76,-310.1"/>
</g>
<!-- input -->
<g id="node9" class="node">
<title>input</title>
<polygon fill="#ffffff" stroke="black" stroke-dasharray="5,2" points="88.5,-510.9 34.5,-510.9 34.5,-472.3 88.5,-472.3 88.5,-510.9"/>
<text text-anchor="middle" x="61.5" y="-487.4" font-family="Helvetica,sans-Serif" font-size="14.00">input</text>
</g>
<!-- function -->
<g id="node10" class="node">
<title>function</title>
<path fill="#b4d8e4" stroke="black" d="M85.03,-453.9C85.03,-453.9 37.97,-453.9 37.97,-453.9 31.97,-453.9 25.97,-447.9 25.97,-441.9 25.97,-441.9 25.97,-427.3 25.97,-427.3 25.97,-421.3 31.97,-415.3 37.97,-415.3 37.97,-415.3 85.03,-415.3 85.03,-415.3 91.03,-415.3 97.03,-421.3 97.03,-427.3 97.03,-427.3 97.03,-441.9 97.03,-441.9 97.03,-447.9 91.03,-453.9 85.03,-453.9"/>
<text text-anchor="middle" x="61.5" y="-430.4" font-family="Helvetica,sans-Serif" font-size="14.00">function</text>
</g>
<!-- output -->
<g id="node11" class="node">
<title>output</title>
<path fill="#ffc857" stroke="black" d="M79.92,-396.9C79.92,-396.9 43.08,-396.9 43.08,-396.9 37.08,-396.9 31.08,-390.9 31.08,-384.9 31.08,-384.9 31.08,-370.3 31.08,-370.3 31.08,-364.3 37.08,-358.3 43.08,-358.3 43.08,-358.3 79.92,-358.3 79.92,-358.3 85.92,-358.3 91.92,-364.3 91.92,-370.3 91.92,-370.3 91.92,-384.9 91.92,-384.9 91.92,-390.9 85.92,-396.9 79.92,-396.9"/>
<text text-anchor="middle" x="61.5" y="-373.4" font-family="Helvetica,sans-Serif" font-size="14.00">output</text>
</g>
</g>
</svg>
